  0
SECTION
  2
HEADER
  9
$ACADVER
  1
AC1014
  9
$HANDSEED
  5
FFFF
  9
$MEASUREMENT
 70
     1
  0
ENDSEC
  0
SECTION
  2
TABLES
  0
TABLE
  2
VPORT
  5
8
330
0
100
AcDbSymbolTable
 70
     4
  0
VPORT
  5
2E
330
8
100
AcDbSymbolTableRecord
100
AcDbViewportTableRecord
  2
*ACTIVE
 70
     0
 10
0.0
 20
0.0
 11
1.0
 21
1.0
 12
210.0
 22
148.5
 13
0.0
 23
0.0
 14
10.0
 24
10.0
 15
10.0
 25
10.0
 16
0.0
 26
0.0
 36
1.0
 17
0.0
 27
0.0
 37
0.0
 40
341.0
 41
1.24
 42
50.0
 43
0.0
 44
0.0
 50
0.0
 51
0.0
 71
     0
 72
   100
 73
     1
 74
     3
 75
     0
 76
     0
 77
     0
 78
     0
  0
ENDTAB
  0
TABLE
  2
LTYPE
  5
5
330
0
100
AcDbSymbolTable
 70
     1
  0
LTYPE
  5
14
330
5
100
AcDbSymbolTableRecord
100
AcDbLinetypeTableRecord
  2
BYBLOCK
 70
     0
  3

 72
    65
 73
     0
 40
0.0
  0
LTYPE
  5
15
330
5
100
AcDbSymbolTableRecord
100
AcDbLinetypeTableRecord
  2
BYLAYER
 70
     0
  3

 72
    65
 73
     0
 40
0.0
  0
LTYPE
  5
16
330
5
100
AcDbSymbolTableRecord
100
AcDbLinetypeTableRecord
  2
CONTINUOUS
 70
     0
  3
Solid line
 72
    65
 73
     0
 40
0.0
  0
ENDTAB
  0
TABLE
  2
LAYER
  5
2
100
AcDbSymbolTable
 70
1
  0
LAYER
  5
50
100
AcDbSymbolTableRecord
100
AcDbLayerTableRecord
  2
0
 70
0
  6
CONTINUOUS
  0
ENDTAB
  0
TABLE
  2
STYLE
  5
3
330
0
100
AcDbSymbolTable
 70
     1
  0
STYLE
  5
11
330
3
100
AcDbSymbolTableRecord
100
AcDbTextStyleTableRecord
  2
STANDARD
 70
     0
 40
0.0
 41
1.0
 50
0.0
 71
     0
 42
2.5
  3
txt
  4

  0
ENDTAB
  0
TABLE
  2
VIEW
  5
6
330
0
100
AcDbSymbolTable
 70
     0
  0
ENDTAB
  0
TABLE
  2
UCS
  5
7
330
0
100
AcDbSymbolTable
 70
     0
  0
ENDTAB
  0
TABLE
  2
APPID
  5
9
330
0
100
AcDbSymbolTable
 70
     2
  0
APPID
  5
12
330
9
100
AcDbSymbolTableRecord
100
AcDbRegAppTableRecord
  2
ACAD
 70
     0
  0
ENDTAB
  0
TABLE
  2
DIMSTYLE
  5
A
330
0
100
AcDbSymbolTable
 70
     1
  0
DIMSTYLE
105
27
330
A
100
AcDbSymbolTableRecord
100
AcDbDimStyleTableRecord
  2
ISO-25
 70
     0
  3

  4

  5

  6

  7

 40
1.0
 41
2.5
 42
0.625
 43
3.75
 44
1.25
 45
0.0
 46
0.0
 47
0.0
 48
0.0
140
2.5
141
2.5
142
0.0
143
0.03937007874016
144
1.0
145
0.0
146
1.0
147
0.625
 71
     0
 72
     0
 73
     0
 74
     0
 75
     0
 76
     0
 77
     1
 78
     8
170
     0
171
     3
172
     1
173
     0
174
     0
175
     0
176
     0
177
     0
178
     0
270
     2
271
     2
272
     2
273
     2
274
     3
340
11
275
     0
280
     0
281
     0
282
     0
283
     0
284
     8
285
     0
286
     0
287
     3
288
     0
  0
ENDTAB
  0
TABLE
  2
BLOCK_RECORD
  5
1
330
0
100
AcDbSymbolTable
 70
     1
  0
BLOCK_RECORD
  5
1F
330
1
100
AcDbSymbolTableRecord
100
AcDbBlockTableRecord
  2
*MODEL_SPACE
  0
BLOCK_RECORD
  5
1B
330
1
100
AcDbSymbolTableRecord
100
AcDbBlockTableRecord
  2
*PAPER_SPACE
  0
ENDTAB
  0
ENDSEC
  0
SECTION
  2
BLOCKS
  0
BLOCK
  5
20
330
1F
100
AcDbEntity
  8
0
100
AcDbBlockBegin
  2
*MODEL_SPACE
 70
     0
 10
0.0
 20
0.0
 30
0.0
  3
*MODEL_SPACE
  1

  0
ENDBLK
  5
21
330
1F
100
AcDbEntity
  8
0
100
AcDbBlockEnd
  0
BLOCK
  5
1C
330
1B
100
AcDbEntity
 67
     1
  8
0
100
AcDbBlockBegin
  2
*PAPER_SPACE
  1

  0
ENDBLK
  5
1D
330
1B
100
AcDbEntity
 67
     1
  8
0
100
AcDbBlockEnd
  0
ENDSEC
  0
SECTION
  2
ENTITIES
  0
SPLINE
  5
100
100
AcDbEntity
  8
0
 62
3
100
AcDbSpline
 70
0
 71
3
 72
43
 73
39
 74
37
 40
0.000000
 40
0.000000
 40
0.000000
 40
0.000000
 40
3.209170
 40
8.967959
 40
12.702116
 40
14.134671
 40
15.861724
 40
17.312320
 40
24.724928
 40
37.205966
 40
43.923139
 40
44.971114
 40
46.787557
 40
48.825009
 40
50.073221
 40
53.278963
 40
60.424096
 40
67.630548
 40
70.656569
 40
71.562707
 40
73.196550
 40
75.809708
 40
77.718084
 40
78.407282
 40
81.726970
 40
89.945656
 40
96.250798
 40
100.589699
 40
102.255883
 40
103.415090
 40
105.289717
 40
106.461870
 40
108.588641
 40
113.860280
 40
121.137029
 40
130.474395
 40
134.633187
 40
135.687700
 40
135.687700
 40
135.687700
 40
135.687700
 10
2.210308
 20
5.958438
 30
0.0
 10
2.385066
 20
7.016425
 30
0.0
 10
2.873423
 20
9.972948
 30
0.0
 10
4.120139
 20
13.976654
 30
0.0
 10
4.624446
 20
17.728977
 30
0.0
 10
6.118842
 20
19.525421
 30
0.0
 10
7.311137
 20
20.505954
 30
0.0
 10
10.483537
 20
22.123575
 30
0.0
 10
18.351134
 20
21.189262
 30
0.0
 10
24.691083
 20
19.931838
 30
0.0
 10
35.851355
 20
23.331444
 30
0.0
 10
35.098894
 20
19.813751
 30
0.0
 10
33.873339
 20
18.713584
 30
0.0
 10
32.576229
 20
17.548791
 30
0.0
 10
30.430552
 20
17.044263
 30
0.0
 10
26.558216
 20
17.089639
 30
0.0
 10
20.719645
 20
17.002262
 30
0.0
 10
14.891859
 20
16.821643
 30
0.0
 10
11.231248
 20
16.978917
 30
0.0
 10
9.324338
 20
16.428366
 30
0.0
 10
8.952085
 20
14.451616
 30
0.0
 10
8.597932
 20
12.806388
 30
0.0
 10
7.411426
 20
10.633024
 30
0.0
 10
9.478354
 20
9.822239
 30
0.0
 10
13.468306
 20
10.359231
 30
0.0
 10
19.371894
 20
9.902461
 30
0.0
 10
25.968478
 20
10.233562
 30
0.0
 10
29.422136
 20
9.640762
 30
0.0
 10
32.720684
 20
10.267859
 30
0.0
 10
32.221423
 20
8.288531
 30
0.0
 10
31.957448
 20
7.146074
 30
0.0
 10
31.429330
 20
5.205372
 30
0.0
 10
27.921783
 20
6.070269
 30
0.0
 10
23.490266
 20
5.363207
 30
0.0
 10
15.967474
 20
5.589203
 30
0.0
 10
9.158443
 20
5.753999
 30
0.0
 10
4.227390
 20
5.392815
 30
0.0
 10
2.549667
 20
5.863274
 30
0.0
 10
2.210308
 20
5.958435
 30
0.0
 11
2.210308
 21
5.958438
 31
0.0
 11
2.784760
 21
9.115775
 31
0.0
 11
4.137225
 21
14.713497
 31
0.0
 11
5.191145
 21
18.295840
 31
0.0
 11
6.082182
 21
19.417565
 31
0.0
 11
7.421061
 21
20.508488
 31
0.0
 11
8.713959
 21
21.166244
 31
0.0
 11
16.122833
 21
21.401516
 31
0.0
 11
28.603870
 21
21.405360
 31
0.0
 11
35.317073
 21
21.174436
 31
0.0
 11
35.093494
 21
20.150589
 31
0.0
 11
33.924989
 21
18.759883
 31
0.0
 11
32.279167
 21
17.558850
 31
0.0
 11
31.076440
 21
17.224963
 31
0.0
 11
27.874671
 21
17.065403
 31
0.0
 11
20.730009
 21
16.983297
 31
0.0
 11
13.524010
 21
16.902606
 31
0.0
 11
10.502063
 21
16.745630
 31
0.0
 11
9.661048
 21
16.408316
 31
0.0
 11
9.032070
 21
14.900394
 31
0.0
 11
8.300387
 21
12.391762
 31
0.0
 11
7.942803
 21
10.517186
 31
0.0
 11
8.556786
 21
10.204108
 31
0.0
 11
11.874066
 21
10.077690
 31
0.0
 11
20.092718
 21
10.054165
 31
0.0
 11
26.397782
 21
10.022660
 31
0.0
 11
30.735846
 21
9.937436
 31
0.0
 11
32.397335
 21
9.812434
 31
0.0
 11
32.316670
 21
8.656037
 31
0.0
 11
31.868008
 21
6.835892
 31
0.0
 11
31.398845
 21
5.761728
 31
0.0
 11
29.274425
 21
5.661752
 31
0.0
 11
24.003282
 21
5.589387
 31
0.0
 11
16.726592
 21
5.560298
 31
0.0
 11
7.389254
 21
5.583477
 31
0.0
 11
3.232026
 21
5.697495
 31
0.0
 11
2.210308
 21
5.958435
 31
0.0
  0
LWPOLYLINE
  5
101
100
AcDbEntity
  8
0
 62
3
100
AcDbPolyline
 90
1
 70
1
 10
2.210308
 20
5.958435
 30
0.0
  0
SPLINE
  5
102
100
AcDbEntity
  8
0
 62
3
100
AcDbSpline
 70
0
 71
3
 72
25
 73
21
 74
19
 40
0.000000
 40
0.000000
 40
0.000000
 40
0.000000
 40
1.067877
 40
2.104967
 40
3.214188
 40
4.122367
 40
6.057929
 40
10.246515
 40
13.431903
 40
15.804902
 40
16.854070
 40
18.021573
 40
19.932457
 40
21.250129
 40
21.819838
 40
23.406146
 40
26.291387
 40
28.837923
 40
30.824681
 40
31.825885
 40
31.825885
 40
31.825885
 40
31.825885
 10
38.684475
 20
5.808869
 30
0.0
 10
38.342840
 20
5.922028
 30
0.0
 10
37.669418
 20
6.145083
 30
0.0
 10
36.864890
 20
6.887480
 30
0.0
 10
36.305191
 20
7.763075
 30
0.0
 10
36.100118
 20
9.095367
 30
0.0
 10
36.711541
 20
11.398107
 30
0.0
 10
37.398702
 20
14.384143
 30
0.0
 10
38.144595
 20
17.611584
 30
0.0
 10
38.856154
 20
19.572540
 30
0.0
 10
39.051152
 20
21.327695
 30
0.0
 10
40.726788
 20
21.394007
 30
0.0
 10
41.891165
 20
21.347732
 30
0.0
 10
43.650721
 20
21.584530
 30
0.0
 10
43.665080
 20
20.258232
 30
0.0
 10
43.268963
 20
18.710037
 30
0.0
 10
42.728273
 20
16.388447
 30
0.0
 10
42.153402
 20
13.996986
 30
0.0
 10
41.738250
 20
12.193758
 30
0.0
 10
41.628896
 20
11.203414
 30
0.0
 10
41.592254
 20
10.871570
 30
0.0
 11
38.684475
 21
5.808869
 31
0.0
 11
37.697283
 21
6.216069
 31
0.0
 11
36.916553
 21
6.898723
 31
0.0
 11
36.348466
 21
7.851430
 31
0.0
 11
36.193681
 21
8.746321
 31
0.0
 11
36.507619
 21
10.656254
 31
0.0
 11
37.479205
 21
14.730596
 31
0.0
 11
38.263651
 21
17.817884
 31
0.0
 11
38.891426
 21
20.106338
 31
0.0
 11
39.226620
 21
21.100521
 31
0.0
 11
40.362528
 21
21.370289
 31
0.0
 11
42.272660
 21
21.423903
 31
0.0
 11
43.574859
 21
21.222568
 31
0.0
 11
43.648426
 21
20.657628
 31
0.0
 11
43.371889
 21
19.095611
 31
0.0
 11
42.701490
 21
16.289335
 31
0.0
 11
42.113571
 21
13.811595
 31
0.0
 11
41.715068
 21
11.865213
 31
0.0
 11
41.592254
 21
10.871570
 31
0.0
  0
LWPOLYLINE
  5
103
100
AcDbEntity
  8
0
 62
3
100
AcDbPolyline
 90
3
 70
0
 10
41.592254
 20
10.871570
 30
0.0
 10
41.671875
 20
10.186458
 30
0.0
 10
50.800000
 20
10.112626
 30
0.0
  0
SPLINE
  5
104
100
AcDbEntity
  8
0
 62
3
100
AcDbSpline
 70
0
 71
3
 72
31
 73
27
 74
25
 40
0.000000
 40
0.000000
 40
0.000000
 40
0.000000
 40
4.676460
 40
8.161845
 40
9.702652
 40
10.586635
 40
12.651755
 40
16.858524
 40
19.082370
 40
20.750062
 40
21.509118
 40
22.813182
 40
24.739094
 40
25.853724
 40
26.813242
 40
29.119474
 40
32.276863
 40
36.582864
 40
38.624051
 40
39.919723
 40
42.217286
 40
45.823035
 40
54.608521
 40
60.325254
 40
64.630761
 40
66.594798
 40
66.594798
 40
66.594798
 40
66.594798
 10
50.800000
 20
10.112626
 30
0.0
 10
52.369814
 20
10.073342
 30
0.0
 10
55.109616
 20
10.004778
 30
0.0
 10
58.247088
 20
10.284580
 30
0.0
 10
60.368121
 20
9.910873
 30
0.0
 10
61.509512
 20
11.043669
 30
0.0
 10
62.015126
 20
13.430009
 30
0.0
 10
62.795895
 20
16.110603
 30
0.0
 10
63.443477
 20
18.773318
 30
0.0
 10
63.928157
 20
20.175234
 30
0.0
 10
64.306530
 20
21.504909
 30
0.0
 10
65.970965
 20
21.353244
 30
0.0
 10
67.096350
 20
21.377814
 30
0.0
 10
68.944352
 20
21.432776
 30
0.0
 10
68.284058
 20
19.654234
 30
0.0
 10
68.055336
 20
17.768425
 30
0.0
 10
67.177959
 20
14.499691
 30
0.0
 10
66.419260
 20
11.494718
 30
0.0
 10
65.751219
 20
8.976517
 30
0.0
 10
64.574200
 20
7.503518
 30
0.0
 10
62.788037
 20
5.741202
 30
0.0
 10
57.586764
 20
5.757669
 30
0.0
 10
51.722198
 20
5.612592
 30
0.0
 10
45.416776
 20
5.651409
 30
0.0
 10
41.425222
 20
5.650522
 30
0.0
 10
39.338253
 20
5.771097
 30
0.0
 10
38.684475
 20
5.808869
 30
0.0
 11
50.800000
 21
10.112626
 31
0.0
 11
55.476425
 21
10.094551
 31
0.0
 11
58.961730
 21
10.118134
 31
0.0
 11
60.501363
 21
10.178273
 31
0.0
 11
61.160615
 21
10.767182
 31
0.0
 11
61.878249
 21
12.703602
 31
0.0
 11
62.945280
 21
16.772796
 31
0.0
 11
63.518772
 21
18.921423
 31
0.0
 11
64.019644
 21
20.512123
 31
0.0
 11
64.339459
 21
21.200516
 31
0.0
 11
65.628193
 21
21.399882
 31
0.0
 11
67.554090
 21
21.392265
 31
0.0
 11
68.648990
 21
21.183471
 31
0.0
 11
68.519517
 21
20.232729
 31
0.0
 11
68.032885
 21
17.978424
 31
0.0
 11
67.294445
 21
14.908600
 31
0.0
 11
66.216321
 21
10.739752
 31
0.0
 11
65.534361
 21
8.815856
 31
0.0
 11
64.765171
 21
7.773209
 31
0.0
 11
63.017843
 21
6.281352
 31
0.0
 11
59.452618
 21
5.742280
 31
0.0
 11
50.667708
 21
5.641631
 31
0.0
 11
44.950978
 21
5.647350
 31
0.0
 11
40.645891
 21
5.707431
 31
0.0
 11
38.684475
 21
5.808869
 31
0.0
  0
LWPOLYLINE
  5
105
100
AcDbEntity
  8
0
 62
3
100
AcDbPolyline
 90
1
 70
1
 10
38.684475
 20
5.808869
 30
0.0
  0
SPLINE
  5
106
100
AcDbEntity
  8
0
 62
3
100
AcDbSpline
 70
0
 71
3
 72
34
 73
30
 74
28
 40
0.000000
 40
0.000000
 40
0.000000
 40
0.000000
 40
0.533473
 40
2.084010
 40
5.278614
 40
7.902235
 40
9.909487
 40
10.867132
 40
11.471020
 40
14.609488
 40
22.971845
 40
29.045785
 40
33.461184
 40
35.263984
 40
35.576756
 40
36.174020
 40
37.242143
 40
38.183523
 40
38.957305
 40
39.400393
 40
47.119309
 40
61.157542
 40
68.830029
 40
73.017956
 40
80.539875
 40
84.746603
 40
85.923205
 40
87.711364
 40
88.900155
 40
88.900155
 40
88.900155
 40
88.900155
 10
93.953788
 20
5.798735
 30
0.0
 10
93.896695
 20
5.969659
 30
0.0
 10
93.673660
 20
6.637373
 30
0.0
 10
94.291316
 20
8.398847
 30
0.0
 10
94.709925
 20
10.748289
 30
0.0
 10
95.472673
 20
13.327283
 30
0.0
 10
95.643376
 20
15.049304
 30
0.0
 10
96.276964
 20
16.369159
 30
0.0
 10
94.742416
 20
17.301260
 30
0.0
 10
90.668970
 20
16.453527
 30
0.0
 10
84.893825
 20
17.151673
 30
0.0
 10
78.424755
 20
16.712794
 30
0.0
 10
74.702454
 20
17.449884
 30
0.0
 10
72.040241
 20
16.662689
 30
0.0
 10
71.552314
 20
17.500028
 30
0.0
 10
71.702531
 20
18.178557
 30
0.0
 10
71.863137
 20
19.014646
 30
0.0
 10
72.117359
 20
19.913848
 30
0.0
 10
72.325743
 20
20.598086
 30
0.0
 10
73.583238
 20
23.362672
 30
0.0
 10
83.893382
 20
19.959472
 30
0.0
 10
90.273241
 20
20.456883
 30
0.0
 10
103.492461
 20
23.373951
 30
0.0
 10
100.561077
 20
15.466985
 30
0.0
 10
99.108782
 20
11.641840
 30
0.0
 10
99.268947
 20
5.709646
 30
0.0
 10
96.676046
 20
5.569929
 30
0.0
 10
95.325276
 20
5.525618
 30
0.0
 10
94.345174
 20
5.720791
 30
0.0
 10
93.953788
 20
5.798730
 30
0.0
 11
93.953788
 21
5.798735
 31
0.0
 11
93.813102
 21
6.313323
 31
0.0
 11
94.068440
 21
7.842692
 31
0.0
 11
94.813684
 21
10.949154
 31
0.0
 11
95.433273
 21
13.498565
 31
0.0
 11
95.875185
 21
15.456567
 31
0.0
 11
96.043750
 21
16.399261
 31
0.0
 11
95.568980
 21
16.772453
 31
0.0
 11
92.433677
 21
16.913376
 31
0.0
 11
84.071354
 21
16.937385
 31
0.0
 11
77.997486
 21
16.966969
 31
0.0
 11
73.582702
 21
17.040640
 31
0.0
 11
71.782779
 21
17.142445
 31
0.0
 11
71.630980
 21
17.415910
 31
0.0
 11
71.663706
 21
18.012277
 31
0.0
 11
71.887823
 21
19.056622
 31
0.0
 11
72.135361
 21
19.964874
 31
0.0
 11
72.379407
 21
20.699164
 31
0.0
 11
72.567128
 21
21.100521
 31
0.0
 11
80.280453
 21
21.394279
 31
0.0
 11
94.318631
 21
21.433454
 31
0.0
 11
101.987017
 21
21.182619
 31
0.0
 11
101.155170
 21
17.078138
 31
0.0
 11
99.306324
 21
9.786977
 31
0.0
 11
98.077213
 21
5.763813
 31
0.0
 11
96.914131
 21
5.585959
 31
0.0
 11
95.126037
 21
5.601101
 31
0.0
 11
93.953788
 21
5.798730
 31
0.0
  0
LWPOLYLINE
  5
107
100
AcDbEntity
  8
0
 62
3
100
AcDbPolyline
 90
1
 70
1
 10
93.953788
 20
5.798730
 30
0.0
  0
SPLINE
  5
108
100
AcDbEntity
  8
0
 62
3
100
AcDbSpline
 70
0
 71
3
 72
25
 73
21
 74
19
 40
0.000000
 40
0.000000
 40
0.000000
 40
0.000000
 40
1.067877
 40
2.104967
 40
3.214188
 40
4.122367
 40
6.057929
 40
10.246515
 40
13.431903
 40
15.804902
 40
16.854070
 40
18.021573
 40
19.932457
 40
21.250129
 40
21.819838
 40
23.406146
 40
26.291387
 40
28.837923
 40
30.824681
 40
31.825885
 40
31.825885
 40
31.825885
 40
31.825885
 10
105.624059
 20
5.808869
 30
0.0
 10
105.282423
 20
5.922028
 30
0.0
 10
104.609002
 20
6.145083
 30
0.0
 10
103.804473
 20
6.887480
 30
0.0
 10
103.244775
 20
7.763075
 30
0.0
 10
103.039701
 20
9.095367
 30
0.0
 10
103.651124
 20
11.398107
 30
0.0
 10
104.338285
 20
14.384143
 30
0.0
 10
105.084179
 20
17.611584
 30
0.0
 10
105.795737
 20
19.572540
 30
0.0
 10
105.990735
 20
21.327695
 30
0.0
 10
107.666372
 20
21.394007
 30
0.0
 10
108.830749
 20
21.347732
 30
0.0
 10
110.590304
 20
21.584530
 30
0.0
 10
110.604663
 20
20.258232
 30
0.0
 10
110.208546
 20
18.710037
 30
0.0
 10
109.667856
 20
16.388447
 30
0.0
 10
109.092985
 20
13.996986
 30
0.0
 10
108.677834
 20
12.193758
 30
0.0
 10
108.568480
 20
11.203414
 30
0.0
 10
108.531837
 20
10.871570
 30
0.0
 11
105.624059
 21
5.808869
 31
0.0
 11
104.636866
 21
6.216069
 31
0.0
 11
103.856137
 21
6.898723
 31
0.0
 11
103.288050
 21
7.851430
 31
0.0
 11
103.133264
 21
8.746321
 31
0.0
 11
103.447203
 21
10.656254
 31
0.0
 11
104.418789
 21
14.730596
 31
0.0
 11
105.203234
 21
17.817884
 31
0.0
 11
105.831009
 21
20.106338
 31
0.0
 11
106.166203
 21
21.100521
 31
0.0
 11
107.302111
 21
21.370289
 31
0.0
 11
109.212243
 21
21.423903
 31
0.0
 11
110.514442
 21
21.222568
 31
0.0
 11
110.588010
 21
20.657628
 31
0.0
 11
110.311472
 21
19.095611
 31
0.0
 11
109.641074
 21
16.289335
 31
0.0
 11
109.053154
 21
13.811595
 31
0.0
 11
108.654651
 21
11.865213
 31
0.0
 11
108.531837
 21
10.871570
 31
0.0
  0
LWPOLYLINE
  5
109
100
AcDbEntity
  8
0
 62
3
100
AcDbPolyline
 90
3
 70
0
 10
108.531837
 20
10.871570
 30
0.0
 10
108.611458
 20
10.186458
 30
0.0
 10
117.739583
 20
10.112626
 30
0.0
  0
SPLINE
  5
10a
100
AcDbEntity
  8
0
 62
3
100
AcDbSpline
 70
0
 71
3
 72
31
 73
27
 74
25
 40
0.000000
 40
0.000000
 40
0.000000
 40
0.000000
 40
4.676460
 40
8.161845
 40
9.702652
 40
10.586635
 40
12.651755
 40
16.858524
 40
19.082370
 40
20.750062
 40
21.509118
 40
22.813182
 40
24.739094
 40
25.853724
 40
26.813242
 40
29.119474
 40
32.276863
 40
36.582864
 40
38.624051
 40
39.919723
 40
42.217286
 40
45.823035
 40
54.608521
 40
60.325254
 40
64.630761
 40
66.594798
 40
66.594798
 40
66.594798
 40
66.594798
 10
117.739583
 20
10.112626
 30
0.0
 10
119.309397
 20
10.073342
 30
0.0
 10
122.049199
 20
10.004778
 30
0.0
 10
125.186672
 20
10.284580
 30
0.0
 10
127.307704
 20
9.910873
 30
0.0
 10
128.449095
 20
11.043669
 30
0.0
 10
128.954710
 20
13.430009
 30
0.0
 10
129.735478
 20
16.110603
 30
0.0
 10
130.383060
 20
18.773318
 30
0.0
 10
130.867740
 20
20.175234
 30
0.0
 10
131.246114
 20
21.504909
 30
0.0
 10
132.910549
 20
21.353244
 30
0.0
 10
134.035934
 20
21.377814
 30
0.0
 10
135.883935
 20
21.432776
 30
0.0
 10
135.223641
 20
19.654234
 30
0.0
 10
134.994919
 20
17.768425
 30
0.0
 10
134.117542
 20
14.499691
 30
0.0
 10
133.358843
 20
11.494718
 30
0.0
 10
132.690802
 20
8.976517
 30
0.0
 10
131.513783
 20
7.503518
 30
0.0
 10
129.727621
 20
5.741202
 30
0.0
 10
124.526347
 20
5.757669
 30
0.0
 10
118.661782
 20
5.612592
 30
0.0
 10
112.356359
 20
5.651409
 30
0.0
 10
108.364806
 20
5.650522
 30
0.0
 10
106.277836
 20
5.771097
 30
0.0
 10
105.624059
 20
5.808869
 30
0.0
 11
117.739583
 21
10.112626
 31
0.0
 11
122.416009
 21
10.094551
 31
0.0
 11
125.901314
 21
10.118134
 31
0.0
 11
127.440947
 21
10.178273
 31
0.0
 11
128.100199
 21
10.767182
 31
0.0
 11
128.817832
 21
12.703602
 31
0.0
 11
129.884863
 21
16.772796
 31
0.0
 11
130.458355
 21
18.921423
 31
0.0
 11
130.959228
 21
20.512123
 31
0.0
 11
131.279043
 21
21.200516
 31
0.0
 11
132.567776
 21
21.399882
 31
0.0
 11
134.493674
 21
21.392265
 31
0.0
 11
135.588573
 21
21.183471
 31
0.0
 11
135.459101
 21
20.232729
 31
0.0
 11
134.972468
 21
17.978424
 31
0.0
 11
134.234028
 21
14.908600
 31
0.0
 11
133.155905
 21
10.739752
 31
0.0
 11
132.473944
 21
8.815856
 31
0.0
 11
131.704755
 21
7.773209
 31
0.0
 11
129.957426
 21
6.281352
 31
0.0
 11
126.392202
 21
5.742280
 31
0.0
 11
117.607292
 21
5.641631
 31
0.0
 11
111.890562
 21
5.647350
 31
0.0
 11
107.585474
 21
5.707431
 31
0.0
 11
105.624059
 21
5.808869
 31
0.0
  0
LWPOLYLINE
  5
10b
100
AcDbEntity
  8
0
 62
3
100
AcDbPolyline
 90
1
 70
1
 10
105.624059
 20
5.808869
 30
0.0
  0
SPLINE
  5
10c
100
AcDbEntity
  8
0
 62
3
100
AcDbSpline
 70
0
 71
3
 72
22
 73
18
 74
16
 40
0.000000
 40
0.000000
 40
0.000000
 40
0.000000
 40
0.339931
 40
0.887606
 40
1.962247
 40
2.865594
 40
3.632616
 40
4.108348
 40
5.432074
 40
7.413082
 40
8.606460
 40
9.723921
 40
11.504828
 40
12.724165
 40
13.889359
 40
15.586218
 40
16.785600
 40
16.785600
 40
16.785600
 40
16.785600
 10
51.089287
 20
17.177050
 30
0.0
 10
51.005188
 20
17.260412
 30
0.0
 10
50.785593
 20
17.478083
 30
0.0
 10
50.901632
 20
18.190260
 30
0.0
 10
51.037376
 20
18.985101
 30
0.0
 10
51.266519
 20
19.886472
 30
0.0
 10
51.498928
 20
20.548772
 30
0.0
 10
51.879129
 20
21.366690
 30
0.0
 10
53.408056
 20
21.364273
 30
0.0
 10
54.622798
 20
21.432977
 30
0.0
 10
56.530893
 20
21.435027
 30
0.0
 10
56.048932
 20
19.718379
 30
0.0
 10
55.736620
 20
18.606439
 30
0.0
 10
55.267714
 20
17.064525
 30
0.0
 10
53.741131
 20
16.991052
 30
0.0
 10
52.435646
 20
16.867819
 30
0.0
 10
51.483560
 20
17.086493
 30
0.0
 10
51.089285
 20
17.177050
 30
0.0
 11
51.089287
 21
17.177050
 31
0.0
 11
50.876896
 21
17.442460
 31
0.0
 11
50.869473
 21
17.990085
 31
0.0
 11
51.063940
 21
19.046984
 31
0.0
 11
51.290023
 21
19.921583
 31
0.0
 11
51.549336
 21
20.643440
 31
0.0
 11
51.785740
 21
21.056278
 31
0.0
 11
53.070985
 21
21.373131
 31
0.0
 11
55.051268
 21
21.426715
 31
0.0
 11
56.218058
 21
21.176210
 31
0.0
 11
56.145149
 21
20.061131
 31
0.0
 11
55.655205
 21
18.348944
 31
0.0
 11
55.098593
 21
17.264062
 31
0.0
 11
53.964945
 21
16.994769
 31
0.0
 11
52.268485
 21
16.957951
 31
0.0
 11
51.089285
 21
17.177050
 31
0.0
  0
LWPOLYLINE
  5
10d
100
AcDbEntity
  8
0
 62
3
100
AcDbPolyline
 90
1
 70
1
 10
51.089285
 20
17.177050
 30
0.0
  0
SPLINE
  5
10e
100
AcDbEntity
  8
0
 62
3
100
AcDbSpline
 70
0
 71
3
 72
22
 73
18
 74
16
 40
0.000000
 40
0.000000
 40
0.000000
 40
0.000000
 40
0.339931
 40
0.887606
 40
1.962247
 40
2.865594
 40
3.632616
 40
4.108348
 40
5.432074
 40
7.413082
 40
8.606460
 40
9.723921
 40
11.504828
 40
12.724165
 40
13.889359
 40
15.586218
 40
16.785600
 40
16.785600
 40
16.785600
 40
16.785600
 10
118.028871
 20
17.177050
 30
0.0
 10
117.944772
 20
17.260412
 30
0.0
 10
117.725177
 20
17.478083
 30
0.0
 10
117.841216
 20
18.190260
 30
0.0
 10
117.976959
 20
18.985101
 30
0.0
 10
118.206102
 20
19.886472
 30
0.0
 10
118.438511
 20
20.548772
 30
0.0
 10
118.818712
 20
21.366690
 30
0.0
 10
120.347639
 20
21.364273
 30
0.0
 10
121.562381
 20
21.432977
 30
0.0
 10
123.470477
 20
21.435027
 30
0.0
 10
122.988515
 20
19.718379
 30
0.0
 10
122.676203
 20
18.606439
 30
0.0
 10
122.207297
 20
17.064525
 30
0.0
 10
120.680715
 20
16.991052
 30
0.0
 10
119.375229
 20
16.867819
 30
0.0
 10
118.423143
 20
17.086493
 30
0.0
 10
118.028868
 20
17.177050
 30
0.0
 11
118.028871
 21
17.177050
 31
0.0
 11
117.816479
 21
17.442460
 31
0.0
 11
117.809057
 21
17.990085
 31
0.0
 11
118.003524
 21
19.046984
 31
0.0
 11
118.229606
 21
19.921583
 31
0.0
 11
118.488920
 21
20.643440
 31
0.0
 11
118.725323
 21
21.056278
 31
0.0
 11
120.010568
 21
21.373131
 31
0.0
 11
121.990852
 21
21.426715
 31
0.0
 11
123.157641
 21
21.176210
 31
0.0
 11
123.084732
 21
20.061131
 31
0.0
 11
122.594788
 21
18.348944
 31
0.0
 11
122.038176
 21
17.264062
 31
0.0
 11
120.904528
 21
16.994769
 31
0.0
 11
119.208068
 21
16.957951
 31
0.0
 11
118.028868
 21
17.177050
 31
0.0
  0
LWPOLYLINE
  5
10f
100
AcDbEntity
  8
0
 62
3
100
AcDbPolyline
 90
1
 70
1
 10
118.028868
 20
17.177050
 30
0.0
  0
SPLINE
  5
110
100
AcDbEntity
  8
0
 62
3
100
AcDbSpline
 70
0
 71
3
 72
25
 73
21
 74
19
 40
0.000000
 40
0.000000
 40
0.000000
 40
0.000000
 40
1.076894
 40
2.773587
 40
3.976115
 40
5.147121
 40
8.914859
 40
16.727078
 40
23.093143
 40
27.911185
 40
30.140175
 40
31.572504
 40
32.923814
 40
34.237584
 40
34.830179
 40
35.247512
 40
35.556578
 40
43.414615
 40
57.204628
 40
64.660262
 40
64.660262
 40
64.660262
 40
64.660262
 10
6.996169
 20
25.160155
 30
0.0
 10
6.984927
 20
25.523913
 30
0.0
 10
6.955972
 20
26.460787
 30
0.0
 10
7.354890
 20
27.666413
 30
0.0
 10
7.678272
 20
29.209898
 30
0.0
 10
10.022269
 20
29.239753
 30
0.0
 10
14.005550
 20
29.417966
 30
0.0
 10
20.138400
 20
29.336905
 30
0.0
 10
26.443267
 20
29.392605
 30
0.0
 10
30.891945
 20
29.167812
 30
0.0
 10
33.762870
 20
29.312361
 30
0.0
 10
35.335760
 20
28.607162
 30
0.0
 10
36.275021
 20
27.556133
 30
0.0
 10
36.552702
 20
26.452666
 30
0.0
 10
36.489821
 20
25.689946
 30
0.0
 10
36.384320
 20
25.236690
 30
0.0
 10
33.985815
 20
23.504509
 30
0.0
 10
25.927258
 20
25.983203
 30
0.0
 10
16.607500
 20
24.635894
 30
0.0
 10
9.492872
 20
25.023969
 30
0.0
 10
6.996169
 20
25.160155
 30
0.0
 11
6.996169
 21
25.160155
 31
0.0
 11
7.008757
 21
26.236975
 31
0.0
 11
7.383738
 21
27.891713
 31
0.0
 11
7.864909
 21
28.993778
 31
0.0
 11
9.011912
 21
29.229660
 31
0.0
 11
12.778069
 21
29.338768
 31
0.0
 11
20.590253
 21
29.362438
 31
0.0
 11
26.956212
 21
29.325791
 31
0.0
 11
31.773413
 21
29.235783
 31
0.0
 11
33.998958
 21
29.111901
 31
0.0
 11
35.298866
 21
28.510399
 31
0.0
 11
36.184966
 21
27.490170
 31
0.0
 11
36.512500
 21
26.217883
 31
0.0
 11
36.466675
 21
25.627063
 31
0.0
 11
36.327847
 21
25.233498
 31
0.0
 11
36.093985
 21
25.031433
 31
0.0
 11
28.237829
 21
24.859507
 31
0.0
 11
14.447951
 21
24.920510
 31
0.0
 11
6.996169
 21
25.160155
 31
0.0
  0
LWPOLYLINE
  5
111
100
AcDbEntity
  8
0
 62
3
100
AcDbPolyline
 90
1
 70
1
 10
6.996169
 20
25.160155
 30
0.0
  0
SPLINE
  5
112
100
AcDbEntity
  8
0
 62
3
100
AcDbSpline
 70
0
 71
3
 72
25
 73
21
 74
19
 40
0.000000
 40
0.000000
 40
0.000000
 40
0.000000
 40
1.471811
 40
3.715373
 40
6.004221
 40
12.335517
 40
22.694016
 40
28.859202
 40
30.291531
 40
31.642841
 40
32.956611
 40
33.549206
 40
33.966538
 40
34.275605
 40
36.444010
 40
41.722806
 40
48.970141
 40
58.182303
 40
62.349428
 40
63.426795
 40
63.426795
 40
63.426795
 40
63.426795
 10
40.313914
 20
25.263624
 30
0.0
 10
40.417467
 20
25.755392
 30
0.0
 10
40.678871
 20
26.996788
 30
0.0
 10
42.388180
 20
28.287890
 30
0.0
 10
45.691957
 20
29.787134
 30
0.0
 10
52.258741
 20
29.089206
 30
0.0
 10
59.699725
 20
29.061823
 30
0.0
 10
65.849212
 20
29.761753
 30
0.0
 10
68.674916
 20
28.618167
 30
0.0
 10
69.612179
 20
27.552964
 30
0.0
 10
69.889984
 20
26.453903
 30
0.0
 10
69.827680
 20
25.688643
 30
0.0
 10
69.720978
 20
25.239609
 30
0.0
 10
68.920884
 20
24.625316
 30
0.0
 10
66.112990
 20
25.303626
 30
0.0
 10
61.388847
 20
24.701786
 30
0.0
 10
54.052298
 20
24.890555
 30
0.0
 10
47.242129
 20
25.052479
 30
0.0
 10
42.355657
 20
24.721282
 30
0.0
 10
40.661867
 20
25.171199
 30
0.0
 10
40.313914
 20
25.263624
 30
0.0
 11
40.313914
 21
25.263624
 31
0.0
 11
40.749535
 21
26.669492
 31
0.0
 11
42.396863
 21
28.192607
 31
0.0
 11
44.488066
 21
29.123036
 31
0.0
 11
50.816211
 21
29.322750
 31
0.0
 11
61.174708
 21
29.317702
 31
0.0
 11
67.336458
 21
29.111899
 31
0.0
 11
68.636366
 21
28.510397
 31
0.0
 11
69.522466
 21
27.490169
 31
0.0
 11
69.850000
 21
26.217882
 31
0.0
 11
69.804175
 21
25.627062
 31
0.0
 11
69.665347
 21
25.233497
 31
0.0
 11
69.431485
 21
25.031431
 31
0.0
 11
67.264589
 21
24.950538
 31
0.0
 11
61.986109
 21
24.892841
 31
0.0
 11
54.738807
 21
24.870833
 31
0.0
 11
45.526682
 21
24.896976
 31
0.0
 11
41.361101
 21
25.010405
 31
0.0
 11
40.313914
 21
25.263624
 31
0.0
  0
LWPOLYLINE
  5
113
100
AcDbEntity
  8
0
 62
3
100
AcDbPolyline
 90
1
 70
1
 10
40.313914
 20
25.263624
 30
0.0
  0
SPLINE
  5
114
100
AcDbEntity
  8
0
 62
3
100
AcDbSpline
 70
0
 71
3
 72
22
 73
18
 74
16
 40
0.000000
 40
0.000000
 40
0.000000
 40
0.000000
 40
1.076894
 40
2.773587
 40
3.976115
 40
5.170377
 40
6.994376
 40
8.289895
 40
8.621212
 40
9.238484
 40
10.416573
 40
11.401199
 40
12.175045
 40
12.580277
 40
13.860628
 40
15.771354
 40
16.890722
 40
16.890722
 40
16.890722
 40
16.890722
 10
73.671171
 20
25.160155
 30
0.0
 10
73.659932
 20
25.523429
 30
0.0
 10
73.630986
 20
26.459059
 30
0.0
 10
74.029807
 20
27.676687
 30
0.0
 10
74.355326
 20
29.192843
 30
0.0
 10
75.977663
 20
29.342128
 30
0.0
 10
77.256090
 20
29.321035
 30
0.0
 10
78.615939
 20
29.453073
 30
0.0
 10
79.059429
 20
28.782637
 30
0.0
 10
78.889149
 20
28.045822
 30
0.0
 10
78.715314
 20
27.161694
 30
0.0
 10
78.442135
 20
26.207811
 30
0.0
 10
78.213924
 20
25.540312
 30
0.0
 10
77.830336
 20
24.758130
 30
0.0
 10
76.371312
 20
24.975594
 30
0.0
 10
75.032360
 20
24.805861
 30
0.0
 10
74.038368
 20
25.064580
 30
0.0
 10
73.671171
 20
25.160155
 30
0.0
 11
73.671171
 21
25.160155
 31
0.0
 11
73.683758
 21
26.236975
 31
0.0
 11
74.058738
 21
27.891713
 31
0.0
 11
74.539909
 21
28.993778
 31
0.0
 11
75.694024
 21
29.300831
 31
0.0
 11
77.516912
 21
29.364473
 31
0.0
 11
78.793234
 21
29.142274
 31
0.0
 11
78.970782
 21
28.862547
 31
0.0
 11
78.937775
 21
28.246157
 31
0.0
 11
78.683646
 21
27.095805
 31
0.0
 11
78.415665
 21
26.148348
 31
0.0
 11
78.149400
 21
25.421752
 31
0.0
 11
77.942496
 21
25.073322
 31
0.0
 11
76.675895
 21
24.886184
 31
0.0
 11
74.765563
 21
24.925020
 31
0.0
 11
73.671171
 21
25.160155
 31
0.0
  0
LWPOLYLINE
  5
115
100
AcDbEntity
  8
0
 62
3
100
AcDbPolyline
 90
1
 70
1
 10
73.671171
 20
25.160155
 30
0.0
  0
SPLINE
  5
116
100
AcDbEntity
  8
0
 62
3
100
AcDbSpline
 70
0
 71
3
 72
25
 73
21
 74
19
 40
0.000000
 40
0.000000
 40
0.000000
 40
0.000000
 40
1.187843
 40
2.976243
 40
4.102935
 40
5.275450
 40
7.062150
 40
8.248169
 40
8.591398
 40
9.189944
 40
10.386856
 40
11.363437
 40
12.135209
 40
12.546497
 40
12.979599
 40
13.787172
 40
14.800779
 40
15.934169
 40
16.606711
 40
16.950082
 40
16.950082
 40
16.950082
 40
16.950082
 10
98.533254
 20
25.234943
 30
0.0
 10
98.552476
 20
25.635529
 30
0.0
 10
98.600637
 20
26.639234
 30
0.0
 10
99.037495
 20
27.865619
 30
0.0
 10
99.410879
 20
29.400302
 30
0.0
 10
101.019982
 20
29.324862
 30
0.0
 10
102.251179
 20
29.284314
 30
0.0
 10
103.514474
 20
29.390468
 30
0.0
 10
103.986901
 20
28.785887
 30
0.0
 10
103.817571
 20
28.034425
 30
0.0
 10
103.636947
 20
27.162104
 30
0.0
 10
103.365012
 20
26.197624
 30
0.0
 10
103.114136
 20
25.552685
 30
0.0
 10
102.879815
 20
25.006714
 30
0.0
 10
102.271432
 20
24.971496
 30
0.0
 10
101.555124
 20
24.885303
 30
0.0
 10
100.551137
 20
24.862709
 30
0.0
 10
99.638225
 20
24.907491
 30
0.0
 10
98.874647
 20
24.922174
 30
0.0
 10
98.619494
 20
25.155934
 30
0.0
 10
98.533254
 20
25.234943
 30
0.0
 11
98.533254
 21
25.234943
 31
0.0
 11
98.633725
 21
26.418529
 31
0.0
 11
99.091350
 21
28.147388
 31
0.0
 11
99.573694
 21
29.165612
 31
0.0
 11
100.733133
 21
29.340235
 31
0.0
 11
102.519752
 21
29.323320
 31
0.0
 11
103.689351
 21
29.126647
 31
0.0
 11
103.892537
 21
28.850022
 31
0.0
 11
103.867743
 21
28.251990
 31
0.0
 11
103.604682
 21
27.084344
 31
0.0
 11
103.333100
 21
26.146285
 31
0.0
 11
103.057750
 21
25.425304
 31
0.0
 11
102.838245
 21
25.077488
 31
0.0
 11
102.416981
 21
24.976922
 31
0.0
 11
101.612695
 21
24.904135
 31
0.0
 11
100.599510
 21
24.874885
 31
0.0
 11
99.466614
 21
24.908372
 31
0.0
 11
98.804056
 21
25.023827
 31
0.0
 11
98.533254
 21
25.234943
 31
0.0
  0
LWPOLYLINE
  5
117
100
AcDbEntity
  8
0
 62
3
100
AcDbPolyline
 90
1
 70
1
 10
98.533254
 20
25.234943
 30
0.0
  0
SPLINE
  5
118
100
AcDbEntity
  8
0
 62
3
100
AcDbSpline
 70
0
 71
3
 72
25
 73
21
 74
19
 40
0.000000
 40
0.000000
 40
0.000000
 40
0.000000
 40
1.471811
 40
3.715373
 40
6.004221
 40
12.335517
 40
22.694016
 40
28.859202
 40
30.291531
 40
31.642841
 40
32.956611
 40
33.549206
 40
33.966538
 40
34.275605
 40
36.444010
 40
41.722806
 40
48.970141
 40
58.182303
 40
62.349428
 40
63.426795
 40
63.426795
 40
63.426795
 40
63.426795
 10
107.253498
 20
25.263624
 30
0.0
 10
107.357050
 20
25.755392
 30
0.0
 10
107.618454
 20
26.996788
 30
0.0
 10
109.327764
 20
28.287890
 30
0.0
 10
112.631540
 20
29.787134
 30
0.0
 10
119.198324
 20
29.089206
 30
0.0
 10
126.639308
 20
29.061823
 30
0.0
 10
132.788796
 20
29.761753
 30
0.0
 10
135.614499
 20
28.618167
 30
0.0
 10
136.551762
 20
27.552964
 30
0.0
 10
136.829568
 20
26.453903
 30
0.0
 10
136.767264
 20
25.688643
 30
0.0
 10
136.660562
 20
25.239609
 30
0.0
 10
135.860467
 20
24.625316
 30
0.0
 10
133.052573
 20
25.303626
 30
0.0
 10
128.328430
 20
24.701786
 30
0.0
 10
120.991881
 20
24.890555
 30
0.0
 10
114.181712
 20
25.052479
 30
0.0
 10
109.295240
 20
24.721282
 30
0.0
 10
107.601450
 20
25.171199
 30
0.0
 10
107.253498
 20
25.263624
 30
0.0
 11
107.253498
 21
25.263624
 31
0.0
 11
107.689118
 21
26.669492
 31
0.0
 11
109.336446
 21
28.192607
 31
0.0
 11
111.427649
 21
29.123036
 31
0.0
 11
117.755794
 21
29.322750
 31
0.0
 11
128.114291
 21
29.317702
 31
0.0
 11
134.276042
 21
29.111899
 31
0.0
 11
135.575950
 21
28.510397
 31
0.0
 11
136.462049
 21
27.490169
 31
0.0
 11
136.789583
 21
26.217882
 31
0.0
 11
136.743759
 21
25.627062
 31
0.0
 11
136.604930
 21
25.233497
 31
0.0
 11
136.371068
 21
25.031431
 31
0.0
 11
134.204172
 21
24.950538
 31
0.0
 11
128.925692
 21
24.892841
 31
0.0
 11
121.678390
 21
24.870833
 31
0.0
 11
112.466266
 21
24.896976
 31
0.0
 11
108.300685
 21
25.010405
 31
0.0
 11
107.253498
 21
25.263624
 31
0.0
  0
LWPOLYLINE
  5
119
100
AcDbEntity
  8
0
 62
3
100
AcDbPolyline
 90
1
 70
1
 10
107.253498
 20
25.263624
 30
0.0
  0
ENDSEC
  0
SECTION
  2
OBJECTS
  0
DICTIONARY
  5
C
330
0
100
AcDbDictionary
  3
ACAD_GROUP
350
D
  3
ACAD_MLINESTYLE
350
17
  0
DICTIONARY
  5
D
330
C
100
AcDbDictionary
  0
DICTIONARY
  5
1A
330
C
100
AcDbDictionary
  0
DICTIONARY
  5
17
330
C
100
AcDbDictionary
  3
STANDARD
350
18
  0
DICTIONARY
  5
19
330
C
100
AcDbDictionary
  0
ENDSEC
  0
EOF
